# xmcd
#
# Track frame offsets:
#	150
#	14587
#	33624
#	46960
#	59818
#	75655
#	91150
#	108615
#	121294
#	134042
#	148974
#	165784
#	182394
#
# Disc length: 2640 seconds
#
# Revision: 1
# Processed by: cddbd v1.5.1PL0 Copyright (c) Steve Scherf et al.
# Submitted via: audiograbber 1.81.02
#
DISCID=b50a4e0d
DTITLE=Mary McKee and The Genesis - 982593 simply... Mary McKee and The Genesis - B
DTITLE=y The Rivers Of Babylon - CD3 (www.gerth.de)
DYEAR=2005
DGENRE=Gospel
TTITLE0=Heaven Holds All The Secrets
TTITLE1=Any Moment
TTITLE2=I Wanna Put My Armour On
TTITLE3=Walk With Me The Rest Of The Way
TTITLE4=Enduring Love
TTITLE5=It Made News In Heaven
TTITLE6=Here In My Own Town
TTITLE7=The Pilgirm
TTITLE8=Be Not Afraid
TTITLE9=We're Together Again
TTITLE10=Over There
TTITLE11=Come To The Saviour
TTITLE12=Shine Thro' Me
EXTD=
EXTT0=
EXTT1=
EXTT2=
EXTT3=
EXTT4=
EXTT5=
EXTT6=
EXTT7=
EXTT8=
EXTT9=
EXTT10=
EXTT11=
EXTT12=
PLAYORDER=
